# xmcd
#
# Track frame offsets:
#	150
#	25651
#	52202
#	78303
#	96754
#	123183
#	145234
#	180035
#	212586
#	250312
#
# Disc length: 3659 seconds
#
# Revision: 1
# Processed by: cddbd v1.5.2PL0 Copyright (c) Steve Scherf et al.
# Submitted via: audiograbber 1.83.01
#
DISCID=7c0e490a
DTITLE=Sweet Claudette's  - That Man's Got To Go
DYEAR=2008
DGENRE=Blues
TTITLE0=Best Damn Loving
TTITLE1=Hee Bie Geebies
TTITLE2=That Man's Got To Go
TTITLE3=Not Another Moment
TTITLE4=Too Many Irons
TTITLE5=Don't Talk That Yak To Me
TTITLE6=Love I See In Your Eyes
TTITLE7=23 Hours And 45 Minutes
TTITLE8=Aint Nobodys Business
TTITLE9=Meet Me
EXTD=
EXTT0=
EXTT1=
EXTT2=
EXTT3=
EXTT4=
EXTT5=
EXTT6=
EXTT7=
EXTT8=
EXTT9=
PLAYORDER=
